<mxfile host="app.diagrams.net" modified="2021-06-24T03:08:36.285Z" agent="5.0 (Windows NT 10.0; Win64; x64) AppleWebKit/537.36 (KHTML, like Gecko) Chrome/91.0.4472.114 Safari/537.36" etag="sHeMSKbuakB9p6FxbxBi" version="14.8.0" type="github">
  <diagram id="kgpKYQtTHZ0yAKxKKP6v" name="Page-1">
    <mxGraphModel dx="1038" dy="588" grid="1" gridSize="10" guides="1" tooltips="1" connect="1" arrows="1" fold="1" page="1" pageScale="1" pageWidth="850" pageHeight="1100" math="0" shadow="0">
      <root>
        <mxCell id="0" />
        <mxCell id="1" parent="0" />
        <mxCell id="3nuBFxr9cyL0pnOWT2aG-1" value="RegInterface" style="shape=umlLifeline;perimeter=lifelinePerimeter;container=1;collapsible=0;recursiveResize=0;rounded=0;shadow=0;strokeWidth=1;" parent="1" vertex="1">
          <mxGeometry x="120" y="80" width="100" height="520" as="geometry" />
        </mxCell>
        <mxCell id="3nuBFxr9cyL0pnOWT2aG-2" value="" style="points=[];perimeter=orthogonalPerimeter;rounded=0;shadow=0;strokeWidth=1;" parent="3nuBFxr9cyL0pnOWT2aG-1" vertex="1">
          <mxGeometry x="45" y="80" width="10" height="420" as="geometry" />
        </mxCell>
        <mxCell id="3nuBFxr9cyL0pnOWT2aG-5" value="RegManager" style="shape=umlLifeline;perimeter=lifelinePerimeter;container=1;collapsible=0;recursiveResize=0;rounded=0;shadow=0;strokeWidth=1;" parent="1" vertex="1">
          <mxGeometry x="300" y="80" width="100" height="520" as="geometry" />
        </mxCell>
        <mxCell id="3nuBFxr9cyL0pnOWT2aG-6" value="" style="points=[];perimeter=orthogonalPerimeter;rounded=0;shadow=0;strokeWidth=1;" parent="3nuBFxr9cyL0pnOWT2aG-5" vertex="1">
          <mxGeometry x="45" y="80" width="10" height="420" as="geometry" />
        </mxCell>
        <mxCell id="5e6KRxHH73iJU5fBcUxB-12" value="SendVerificationCode" style="edgeStyle=orthogonalEdgeStyle;html=1;align=left;spacingLeft=2;endArrow=block;rounded=0;entryX=0.9;entryY=0.523;entryDx=0;entryDy=0;entryPerimeter=0;" edge="1" target="3nuBFxr9cyL0pnOWT2aG-6" parent="3nuBFxr9cyL0pnOWT2aG-5">
          <mxGeometry y="10" relative="1" as="geometry">
            <mxPoint x="54" y="280" as="sourcePoint" />
            <Array as="points">
              <mxPoint x="90" y="280" />
              <mxPoint x="90" y="300" />
            </Array>
            <mxPoint x="60" y="300" as="targetPoint" />
            <mxPoint as="offset" />
          </mxGeometry>
        </mxCell>
        <mxCell id="5e6KRxHH73iJU5fBcUxB-15" value="check = CheckCode(code)" style="edgeStyle=orthogonalEdgeStyle;html=1;align=left;spacingLeft=2;endArrow=block;rounded=0;entryX=1.06;entryY=0.713;entryDx=0;entryDy=0;entryPerimeter=0;" edge="1" target="3nuBFxr9cyL0pnOWT2aG-6" parent="3nuBFxr9cyL0pnOWT2aG-5">
          <mxGeometry relative="1" as="geometry">
            <mxPoint x="56" y="360" as="sourcePoint" />
            <Array as="points">
              <mxPoint x="90" y="360" />
              <mxPoint x="90" y="380" />
            </Array>
            <mxPoint x="65" y="380" as="targetPoint" />
          </mxGeometry>
        </mxCell>
        <mxCell id="5e6KRxHH73iJU5fBcUxB-1" value="DataBaseManager" style="shape=umlLifeline;perimeter=lifelinePerimeter;whiteSpace=wrap;html=1;container=1;collapsible=0;recursiveResize=0;outlineConnect=0;" vertex="1" parent="1">
          <mxGeometry x="620" y="80" width="100" height="510" as="geometry" />
        </mxCell>
        <mxCell id="5e6KRxHH73iJU5fBcUxB-2" value="" style="html=1;points=[];perimeter=orthogonalPerimeter;" vertex="1" parent="1">
          <mxGeometry x="665" y="160" width="10" height="410" as="geometry" />
        </mxCell>
        <mxCell id="5e6KRxHH73iJU5fBcUxB-4" value="Set(repeat)" style="html=1;verticalAlign=bottom;endArrow=open;dashed=1;endSize=8;entryX=0.98;entryY=0.325;entryDx=0;entryDy=0;entryPerimeter=0;" edge="1" parent="1" target="3nuBFxr9cyL0pnOWT2aG-6">
          <mxGeometry x="-0.006" y="13" relative="1" as="geometry">
            <mxPoint x="310" y="336" as="targetPoint" />
            <mxPoint x="564" y="297" as="sourcePoint" />
            <Array as="points" />
            <mxPoint as="offset" />
          </mxGeometry>
        </mxCell>
        <mxCell id="5e6KRxHH73iJU5fBcUxB-5" value="RegInfo(username,password)" style="html=1;verticalAlign=bottom;endArrow=block;exitX=0.98;exitY=0.049;exitDx=0;exitDy=0;exitPerimeter=0;entryX=0.18;entryY=0.045;entryDx=0;entryDy=0;entryPerimeter=0;" edge="1" parent="1" source="3nuBFxr9cyL0pnOWT2aG-2" target="3nuBFxr9cyL0pnOWT2aG-6">
          <mxGeometry width="80" relative="1" as="geometry">
            <mxPoint x="220" y="180" as="sourcePoint" />
            <mxPoint x="300" y="180" as="targetPoint" />
          </mxGeometry>
        </mxCell>
        <mxCell id="5e6KRxHH73iJU5fBcUxB-7" value="valid = CheckValid(password)" style="edgeStyle=orthogonalEdgeStyle;html=1;align=left;spacingLeft=2;endArrow=block;rounded=0;" edge="1" parent="1">
          <mxGeometry relative="1" as="geometry">
            <mxPoint x="356" y="200" as="sourcePoint" />
            <Array as="points">
              <mxPoint x="356" y="200" />
              <mxPoint x="390" y="200" />
              <mxPoint x="390" y="220" />
            </Array>
            <mxPoint x="356" y="220" as="targetPoint" />
          </mxGeometry>
        </mxCell>
        <mxCell id="5e6KRxHH73iJU5fBcUxB-8" value="[valid = false]Retry" style="html=1;verticalAlign=bottom;endArrow=block;entryX=1.06;entryY=0.201;entryDx=0;entryDy=0;entryPerimeter=0;exitX=-0.14;exitY=0.199;exitDx=0;exitDy=0;exitPerimeter=0;" edge="1" parent="1" source="3nuBFxr9cyL0pnOWT2aG-6" target="3nuBFxr9cyL0pnOWT2aG-2">
          <mxGeometry x="-0.0047" width="80" relative="1" as="geometry">
            <mxPoint x="345" y="271" as="sourcePoint" />
            <mxPoint x="300" y="270" as="targetPoint" />
            <Array as="points" />
            <mxPoint as="offset" />
          </mxGeometry>
        </mxCell>
        <mxCell id="5e6KRxHH73iJU5fBcUxB-9" value="CheckRepeat(username)" style="html=1;verticalAlign=bottom;endArrow=block;entryX=0.02;entryY=0.262;entryDx=0;entryDy=0;entryPerimeter=0;exitX=0.98;exitY=0.258;exitDx=0;exitDy=0;exitPerimeter=0;" edge="1" parent="1" source="3nuBFxr9cyL0pnOWT2aG-6" target="5e6KRxHH73iJU5fBcUxB-2">
          <mxGeometry x="0.03" y="10" relative="1" as="geometry">
            <mxPoint x="350" y="360" as="sourcePoint" />
            <mxPoint x="563.5999999999999" y="359.66999999999996" as="targetPoint" />
            <Array as="points" />
            <mxPoint as="offset" />
          </mxGeometry>
        </mxCell>
        <mxCell id="5e6KRxHH73iJU5fBcUxB-10" value="[repeat = true]Retry" style="html=1;verticalAlign=bottom;endArrow=block;entryX=0.532;entryY=0.492;entryDx=0;entryDy=0;entryPerimeter=0;exitX=0.18;exitY=0.418;exitDx=0;exitDy=0;exitPerimeter=0;" edge="1" parent="1" source="3nuBFxr9cyL0pnOWT2aG-6" target="3nuBFxr9cyL0pnOWT2aG-1">
          <mxGeometry width="80" relative="1" as="geometry">
            <mxPoint x="220" y="334.5" as="sourcePoint" />
            <mxPoint x="300" y="334.5" as="targetPoint" />
          </mxGeometry>
        </mxCell>
        <mxCell id="5e6KRxHH73iJU5fBcUxB-13" value="VerifyCode(code)" style="html=1;verticalAlign=bottom;endArrow=block;entryX=0.1;entryY=0.622;entryDx=0;entryDy=0;entryPerimeter=0;exitX=1.06;exitY=0.622;exitDx=0;exitDy=0;exitPerimeter=0;" edge="1" parent="1" source="3nuBFxr9cyL0pnOWT2aG-2" target="3nuBFxr9cyL0pnOWT2aG-6">
          <mxGeometry width="80" relative="1" as="geometry">
            <mxPoint x="220" y="420" as="sourcePoint" />
            <mxPoint x="300" y="420" as="targetPoint" />
          </mxGeometry>
        </mxCell>
        <mxCell id="5e6KRxHH73iJU5fBcUxB-16" value="[check = true]CreatAccount(username,password)" style="html=1;verticalAlign=bottom;endArrow=block;entryX=0.02;entryY=0.828;entryDx=0;entryDy=0;entryPerimeter=0;exitX=1.46;exitY=0.807;exitDx=0;exitDy=0;exitPerimeter=0;" edge="1" parent="1" source="3nuBFxr9cyL0pnOWT2aG-6" target="5e6KRxHH73iJU5fBcUxB-2">
          <mxGeometry width="80" relative="1" as="geometry">
            <mxPoint x="400" y="500" as="sourcePoint" />
            <mxPoint x="480" y="500" as="targetPoint" />
          </mxGeometry>
        </mxCell>
        <mxCell id="5e6KRxHH73iJU5fBcUxB-17" value="[check = false]Resend or Retry" style="html=1;verticalAlign=bottom;endArrow=block;entryX=1.22;entryY=0.862;entryDx=0;entryDy=0;entryPerimeter=0;exitX=0.1;exitY=0.86;exitDx=0;exitDy=0;exitPerimeter=0;" edge="1" parent="1" source="3nuBFxr9cyL0pnOWT2aG-6" target="3nuBFxr9cyL0pnOWT2aG-2">
          <mxGeometry width="80" relative="1" as="geometry">
            <mxPoint x="340" y="520" as="sourcePoint" />
            <mxPoint x="180" y="520" as="targetPoint" />
          </mxGeometry>
        </mxCell>
        <mxCell id="5e6KRxHH73iJU5fBcUxB-18" value="[result = true]Show(Success)" style="html=1;verticalAlign=bottom;endArrow=block;entryX=0.98;entryY=0.961;entryDx=0;entryDy=0;entryPerimeter=0;exitX=0.1;exitY=0.953;exitDx=0;exitDy=0;exitPerimeter=0;" edge="1" parent="1" source="3nuBFxr9cyL0pnOWT2aG-6" target="3nuBFxr9cyL0pnOWT2aG-2">
          <mxGeometry width="80" relative="1" as="geometry">
            <mxPoint x="340" y="560" as="sourcePoint" />
            <mxPoint x="300" y="560" as="targetPoint" />
          </mxGeometry>
        </mxCell>
        <mxCell id="5e6KRxHH73iJU5fBcUxB-19" value="Set(result)" style="html=1;verticalAlign=bottom;endArrow=open;dashed=1;endSize=8;entryX=0.532;entryY=0.885;entryDx=0;entryDy=0;entryPerimeter=0;exitX=-0.3;exitY=0.926;exitDx=0;exitDy=0;exitPerimeter=0;" edge="1" parent="1" source="5e6KRxHH73iJU5fBcUxB-2" target="3nuBFxr9cyL0pnOWT2aG-5">
          <mxGeometry relative="1" as="geometry">
            <mxPoint x="505" y="540" as="sourcePoint" />
            <mxPoint x="425" y="540" as="targetPoint" />
          </mxGeometry>
        </mxCell>
      </root>
    </mxGraphModel>
  </diagram>
</mxfile>
